<mxfile host="app.diagrams.net" agent="Mozilla/5.0 (Windows NT 10.0; Win64; x64) AppleWebKit/537.36 (KHTML, like Gecko) Chrome/135.0.0.0 Safari/537.36" version="26.2.13">
  <diagram name="Pagina-1" id="ivWRwUBX_5r-hhQ2Fmha">
    <mxGraphModel dx="1139" dy="1364" grid="0" gridSize="10" guides="1" tooltips="1" connect="1" arrows="1" fold="1" page="0" pageScale="1" pageWidth="827" pageHeight="1169" math="0" shadow="0">
      <root>
        <mxCell id="0" />
        <mxCell id="1" parent="0" />
        <mxCell id="NnwS0OQ6CparOtbuU1h_-1" value="" style="rounded=0;whiteSpace=wrap;html=1;fillColor=#f8cecc;strokeColor=#b85450;" vertex="1" parent="1">
          <mxGeometry x="-55" y="-318.5" width="25" height="125" as="geometry" />
        </mxCell>
        <mxCell id="NnwS0OQ6CparOtbuU1h_-2" value="Layer1&lt;br&gt;2048" style="text;html=1;align=center;verticalAlign=middle;resizable=0;points=[];autosize=1;strokeColor=none;fillColor=none;fontSize=16;" vertex="1" parent="1">
          <mxGeometry x="-14" y="-522" width="67" height="50" as="geometry" />
        </mxCell>
        <mxCell id="NnwS0OQ6CparOtbuU1h_-39" style="edgeStyle=none;curved=1;rounded=0;orthogonalLoop=1;jettySize=auto;html=1;exitX=1;exitY=0;exitDx=0;exitDy=0;entryX=0;entryY=0;entryDx=0;entryDy=0;fontSize=12;startSize=8;endSize=8;endArrow=none;startFill=0;dashed=1;dashPattern=1 4;strokeWidth=2;" edge="1" parent="1" source="NnwS0OQ6CparOtbuU1h_-4" target="NnwS0OQ6CparOtbuU1h_-10">
          <mxGeometry relative="1" as="geometry" />
        </mxCell>
        <mxCell id="NnwS0OQ6CparOtbuU1h_-50" style="edgeStyle=none;shape=connector;curved=1;rounded=0;orthogonalLoop=1;jettySize=auto;html=1;exitX=0;exitY=1;exitDx=0;exitDy=0;entryX=1;entryY=1;entryDx=0;entryDy=0;dashed=1;dashPattern=1 4;strokeColor=default;strokeWidth=2;align=center;verticalAlign=middle;fontFamily=Helvetica;fontSize=12;fontColor=default;labelBackgroundColor=default;startFill=0;startSize=8;endArrow=none;endSize=8;" edge="1" parent="1" source="NnwS0OQ6CparOtbuU1h_-4" target="NnwS0OQ6CparOtbuU1h_-8">
          <mxGeometry relative="1" as="geometry" />
        </mxCell>
        <mxCell id="NnwS0OQ6CparOtbuU1h_-4" value="" style="rounded=0;whiteSpace=wrap;html=1;fillColor=#f8cecc;strokeColor=#b85450;" vertex="1" parent="1">
          <mxGeometry x="130" y="-373" width="25" height="234" as="geometry" />
        </mxCell>
        <mxCell id="NnwS0OQ6CparOtbuU1h_-5" value="Input&lt;br&gt;1024" style="text;html=1;align=center;verticalAlign=middle;resizable=0;points=[];autosize=1;strokeColor=none;fillColor=none;fontSize=16;" vertex="1" parent="1">
          <mxGeometry x="-69.5" y="-522" width="54" height="50" as="geometry" />
        </mxCell>
        <mxCell id="NnwS0OQ6CparOtbuU1h_-6" value="Layer3&lt;div&gt;2048&lt;/div&gt;" style="text;html=1;align=center;verticalAlign=middle;resizable=0;points=[];autosize=1;strokeColor=none;fillColor=none;fontSize=16;" vertex="1" parent="1">
          <mxGeometry x="109" y="-522" width="67" height="50" as="geometry" />
        </mxCell>
        <mxCell id="NnwS0OQ6CparOtbuU1h_-52" style="edgeStyle=none;shape=connector;curved=1;rounded=0;orthogonalLoop=1;jettySize=auto;html=1;exitX=0;exitY=1;exitDx=0;exitDy=0;entryX=1;entryY=1;entryDx=0;entryDy=0;dashed=1;dashPattern=1 4;strokeColor=default;strokeWidth=2;align=center;verticalAlign=middle;fontFamily=Helvetica;fontSize=12;fontColor=default;labelBackgroundColor=default;startFill=0;startSize=8;endArrow=none;endSize=8;" edge="1" parent="1" source="NnwS0OQ6CparOtbuU1h_-7" target="NnwS0OQ6CparOtbuU1h_-1">
          <mxGeometry relative="1" as="geometry" />
        </mxCell>
        <mxCell id="NnwS0OQ6CparOtbuU1h_-7" value="" style="rounded=0;whiteSpace=wrap;html=1;fillColor=#f8cecc;strokeColor=#b85450;" vertex="1" parent="1">
          <mxGeometry x="7" y="-373" width="25" height="234" as="geometry" />
        </mxCell>
        <mxCell id="NnwS0OQ6CparOtbuU1h_-51" style="edgeStyle=none;shape=connector;curved=1;rounded=0;orthogonalLoop=1;jettySize=auto;html=1;exitX=0;exitY=1;exitDx=0;exitDy=0;entryX=1;entryY=1;entryDx=0;entryDy=0;dashed=1;dashPattern=1 4;strokeColor=default;strokeWidth=2;align=center;verticalAlign=middle;fontFamily=Helvetica;fontSize=12;fontColor=default;labelBackgroundColor=default;startFill=0;startSize=8;endArrow=none;endSize=8;" edge="1" parent="1" source="NnwS0OQ6CparOtbuU1h_-8" target="NnwS0OQ6CparOtbuU1h_-7">
          <mxGeometry relative="1" as="geometry" />
        </mxCell>
        <mxCell id="NnwS0OQ6CparOtbuU1h_-8" value="" style="rounded=0;whiteSpace=wrap;html=1;fillColor=#f8cecc;strokeColor=#b85450;" vertex="1" parent="1">
          <mxGeometry x="69" y="-455.5" width="25" height="399" as="geometry" />
        </mxCell>
        <mxCell id="NnwS0OQ6CparOtbuU1h_-9" value="Layer2&lt;br&gt;2048" style="text;html=1;align=center;verticalAlign=middle;resizable=0;points=[];autosize=1;strokeColor=none;fillColor=none;fontSize=16;" vertex="1" parent="1">
          <mxGeometry x="48" y="-522" width="67" height="50" as="geometry" />
        </mxCell>
        <mxCell id="NnwS0OQ6CparOtbuU1h_-41" style="edgeStyle=none;shape=connector;curved=1;rounded=0;orthogonalLoop=1;jettySize=auto;html=1;exitX=1;exitY=0;exitDx=0;exitDy=0;entryX=0;entryY=0;entryDx=0;entryDy=0;dashed=1;dashPattern=1 4;strokeColor=default;strokeWidth=2;align=center;verticalAlign=middle;fontFamily=Helvetica;fontSize=12;fontColor=default;labelBackgroundColor=default;startFill=0;startSize=8;endArrow=none;endSize=8;" edge="1" parent="1" source="NnwS0OQ6CparOtbuU1h_-10" target="NnwS0OQ6CparOtbuU1h_-12">
          <mxGeometry relative="1" as="geometry" />
        </mxCell>
        <mxCell id="NnwS0OQ6CparOtbuU1h_-49" style="edgeStyle=none;shape=connector;curved=1;rounded=0;orthogonalLoop=1;jettySize=auto;html=1;exitX=0;exitY=1;exitDx=0;exitDy=0;entryX=1;entryY=1;entryDx=0;entryDy=0;dashed=1;dashPattern=1 4;strokeColor=default;strokeWidth=2;align=center;verticalAlign=middle;fontFamily=Helvetica;fontSize=12;fontColor=default;labelBackgroundColor=default;startFill=0;startSize=8;endArrow=none;endSize=8;" edge="1" parent="1" source="NnwS0OQ6CparOtbuU1h_-10" target="NnwS0OQ6CparOtbuU1h_-4">
          <mxGeometry relative="1" as="geometry" />
        </mxCell>
        <mxCell id="NnwS0OQ6CparOtbuU1h_-10" value="" style="rounded=0;whiteSpace=wrap;html=1;fillColor=#f8cecc;strokeColor=#b85450;" vertex="1" parent="1">
          <mxGeometry x="192" y="-318.5" width="25" height="125" as="geometry" />
        </mxCell>
        <mxCell id="NnwS0OQ6CparOtbuU1h_-11" value="Layer4&lt;div&gt;1024&lt;/div&gt;" style="text;html=1;align=center;verticalAlign=middle;resizable=0;points=[];autosize=1;strokeColor=none;fillColor=none;fontSize=16;" vertex="1" parent="1">
          <mxGeometry x="171" y="-522" width="67" height="50" as="geometry" />
        </mxCell>
        <mxCell id="NnwS0OQ6CparOtbuU1h_-42" style="edgeStyle=none;shape=connector;curved=1;rounded=0;orthogonalLoop=1;jettySize=auto;html=1;exitX=1;exitY=0;exitDx=0;exitDy=0;entryX=0;entryY=0;entryDx=0;entryDy=0;dashed=1;dashPattern=1 4;strokeColor=default;strokeWidth=2;align=center;verticalAlign=middle;fontFamily=Helvetica;fontSize=12;fontColor=default;labelBackgroundColor=default;startFill=0;startSize=8;endArrow=none;endSize=8;" edge="1" parent="1" source="NnwS0OQ6CparOtbuU1h_-12" target="NnwS0OQ6CparOtbuU1h_-14">
          <mxGeometry relative="1" as="geometry" />
        </mxCell>
        <mxCell id="NnwS0OQ6CparOtbuU1h_-48" style="edgeStyle=none;shape=connector;curved=1;rounded=0;orthogonalLoop=1;jettySize=auto;html=1;exitX=0;exitY=1;exitDx=0;exitDy=0;entryX=1;entryY=1;entryDx=0;entryDy=0;dashed=1;dashPattern=1 4;strokeColor=default;strokeWidth=2;align=center;verticalAlign=middle;fontFamily=Helvetica;fontSize=12;fontColor=default;labelBackgroundColor=default;startFill=0;startSize=8;endArrow=none;endSize=8;" edge="1" parent="1" source="NnwS0OQ6CparOtbuU1h_-12" target="NnwS0OQ6CparOtbuU1h_-10">
          <mxGeometry relative="1" as="geometry" />
        </mxCell>
        <mxCell id="NnwS0OQ6CparOtbuU1h_-12" value="" style="rounded=0;whiteSpace=wrap;html=1;fillColor=#f8cecc;strokeColor=#b85450;" vertex="1" parent="1">
          <mxGeometry x="254" y="-296.25" width="25" height="80.5" as="geometry" />
        </mxCell>
        <mxCell id="NnwS0OQ6CparOtbuU1h_-13" value="Layer5&lt;div&gt;512&lt;/div&gt;" style="text;html=1;align=center;verticalAlign=middle;resizable=0;points=[];autosize=1;strokeColor=none;fillColor=none;fontSize=16;" vertex="1" parent="1">
          <mxGeometry x="233" y="-522" width="67" height="50" as="geometry" />
        </mxCell>
        <mxCell id="NnwS0OQ6CparOtbuU1h_-43" style="edgeStyle=none;shape=connector;curved=1;rounded=0;orthogonalLoop=1;jettySize=auto;html=1;exitX=1;exitY=0;exitDx=0;exitDy=0;entryX=0;entryY=0;entryDx=0;entryDy=0;dashed=1;dashPattern=1 4;strokeColor=default;strokeWidth=2;align=center;verticalAlign=middle;fontFamily=Helvetica;fontSize=12;fontColor=default;labelBackgroundColor=default;startFill=0;startSize=8;endArrow=none;endSize=8;" edge="1" parent="1" source="NnwS0OQ6CparOtbuU1h_-14" target="NnwS0OQ6CparOtbuU1h_-16">
          <mxGeometry relative="1" as="geometry" />
        </mxCell>
        <mxCell id="NnwS0OQ6CparOtbuU1h_-47" style="edgeStyle=none;shape=connector;curved=1;rounded=0;orthogonalLoop=1;jettySize=auto;html=1;exitX=0;exitY=1;exitDx=0;exitDy=0;entryX=1;entryY=1;entryDx=0;entryDy=0;dashed=1;dashPattern=1 4;strokeColor=default;strokeWidth=2;align=center;verticalAlign=middle;fontFamily=Helvetica;fontSize=12;fontColor=default;labelBackgroundColor=default;startFill=0;startSize=8;endArrow=none;endSize=8;" edge="1" parent="1" source="NnwS0OQ6CparOtbuU1h_-14" target="NnwS0OQ6CparOtbuU1h_-12">
          <mxGeometry relative="1" as="geometry" />
        </mxCell>
        <mxCell id="NnwS0OQ6CparOtbuU1h_-14" value="" style="rounded=0;whiteSpace=wrap;html=1;fillColor=#f8cecc;strokeColor=#b85450;" vertex="1" parent="1">
          <mxGeometry x="316" y="-281" width="25" height="50" as="geometry" />
        </mxCell>
        <mxCell id="NnwS0OQ6CparOtbuU1h_-15" value="Layer6&lt;div&gt;256&lt;/div&gt;" style="text;html=1;align=center;verticalAlign=middle;resizable=0;points=[];autosize=1;strokeColor=none;fillColor=none;fontSize=16;" vertex="1" parent="1">
          <mxGeometry x="295" y="-522" width="67" height="50" as="geometry" />
        </mxCell>
        <mxCell id="NnwS0OQ6CparOtbuU1h_-44" style="edgeStyle=none;shape=connector;curved=1;rounded=0;orthogonalLoop=1;jettySize=auto;html=1;exitX=1;exitY=0;exitDx=0;exitDy=0;entryX=0;entryY=0;entryDx=0;entryDy=0;dashed=1;dashPattern=1 4;strokeColor=default;strokeWidth=2;align=center;verticalAlign=middle;fontFamily=Helvetica;fontSize=12;fontColor=default;labelBackgroundColor=default;startFill=0;startSize=8;endArrow=none;endSize=8;" edge="1" parent="1" source="NnwS0OQ6CparOtbuU1h_-16" target="NnwS0OQ6CparOtbuU1h_-19">
          <mxGeometry relative="1" as="geometry" />
        </mxCell>
        <mxCell id="NnwS0OQ6CparOtbuU1h_-46" style="edgeStyle=none;shape=connector;curved=1;rounded=0;orthogonalLoop=1;jettySize=auto;html=1;exitX=0;exitY=1;exitDx=0;exitDy=0;entryX=1;entryY=1;entryDx=0;entryDy=0;dashed=1;dashPattern=1 4;strokeColor=default;strokeWidth=2;align=center;verticalAlign=middle;fontFamily=Helvetica;fontSize=12;fontColor=default;labelBackgroundColor=default;startFill=0;startSize=8;endArrow=none;endSize=8;" edge="1" parent="1" source="NnwS0OQ6CparOtbuU1h_-16" target="NnwS0OQ6CparOtbuU1h_-14">
          <mxGeometry relative="1" as="geometry" />
        </mxCell>
        <mxCell id="NnwS0OQ6CparOtbuU1h_-16" value="" style="rounded=0;whiteSpace=wrap;html=1;fillColor=#f8cecc;strokeColor=#b85450;" vertex="1" parent="1">
          <mxGeometry x="377" y="-269" width="25" height="26" as="geometry" />
        </mxCell>
        <mxCell id="NnwS0OQ6CparOtbuU1h_-17" value="Layer7&lt;div&gt;128&lt;/div&gt;" style="text;html=1;align=center;verticalAlign=middle;resizable=0;points=[];autosize=1;strokeColor=none;fillColor=none;fontSize=16;" vertex="1" parent="1">
          <mxGeometry x="356" y="-522" width="67" height="50" as="geometry" />
        </mxCell>
        <mxCell id="NnwS0OQ6CparOtbuU1h_-45" style="edgeStyle=none;shape=connector;curved=1;rounded=0;orthogonalLoop=1;jettySize=auto;html=1;exitX=0;exitY=1;exitDx=0;exitDy=0;entryX=1;entryY=1;entryDx=0;entryDy=0;dashed=1;dashPattern=1 4;strokeColor=default;strokeWidth=2;align=center;verticalAlign=middle;fontFamily=Helvetica;fontSize=12;fontColor=default;labelBackgroundColor=default;startFill=0;startSize=8;endArrow=none;endSize=8;" edge="1" parent="1" source="NnwS0OQ6CparOtbuU1h_-19" target="NnwS0OQ6CparOtbuU1h_-16">
          <mxGeometry relative="1" as="geometry" />
        </mxCell>
        <mxCell id="NnwS0OQ6CparOtbuU1h_-19" value="" style="rounded=0;whiteSpace=wrap;html=1;fillColor=#f8cecc;strokeColor=#b85450;" vertex="1" parent="1">
          <mxGeometry x="439" y="-261" width="25" height="10" as="geometry" />
        </mxCell>
        <mxCell id="NnwS0OQ6CparOtbuU1h_-24" value="Out&lt;br&gt;&lt;div&gt;1&lt;/div&gt;" style="text;html=1;align=center;verticalAlign=middle;resizable=0;points=[];autosize=1;strokeColor=none;fillColor=none;fontSize=16;" vertex="1" parent="1">
          <mxGeometry x="429.5" y="-522" width="44" height="50" as="geometry" />
        </mxCell>
        <mxCell id="NnwS0OQ6CparOtbuU1h_-36" value="" style="endArrow=none;dashed=1;html=1;dashPattern=1 3;strokeWidth=2;rounded=0;fontSize=12;startSize=8;endSize=8;curved=1;exitX=1;exitY=0;exitDx=0;exitDy=0;entryX=0;entryY=0;entryDx=0;entryDy=0;" edge="1" parent="1" source="NnwS0OQ6CparOtbuU1h_-1" target="NnwS0OQ6CparOtbuU1h_-7">
          <mxGeometry width="50" height="50" relative="1" as="geometry">
            <mxPoint x="196" y="-298" as="sourcePoint" />
            <mxPoint x="246" y="-348" as="targetPoint" />
          </mxGeometry>
        </mxCell>
        <mxCell id="NnwS0OQ6CparOtbuU1h_-37" value="" style="endArrow=none;dashed=1;html=1;dashPattern=1 3;strokeWidth=2;rounded=0;fontSize=12;startSize=8;endSize=8;curved=1;exitX=1;exitY=0;exitDx=0;exitDy=0;entryX=0;entryY=0;entryDx=0;entryDy=0;" edge="1" parent="1" source="NnwS0OQ6CparOtbuU1h_-7" target="NnwS0OQ6CparOtbuU1h_-8">
          <mxGeometry width="50" height="50" relative="1" as="geometry">
            <mxPoint x="-20" y="-308" as="sourcePoint" />
            <mxPoint x="17" y="-363" as="targetPoint" />
          </mxGeometry>
        </mxCell>
        <mxCell id="NnwS0OQ6CparOtbuU1h_-38" value="" style="endArrow=none;dashed=1;html=1;dashPattern=1 3;strokeWidth=2;rounded=0;fontSize=12;startSize=8;endSize=8;curved=1;exitX=0;exitY=0;exitDx=0;exitDy=0;entryX=1;entryY=0;entryDx=0;entryDy=0;" edge="1" parent="1" source="NnwS0OQ6CparOtbuU1h_-4" target="NnwS0OQ6CparOtbuU1h_-8">
          <mxGeometry width="50" height="50" relative="1" as="geometry">
            <mxPoint x="42" y="-363" as="sourcePoint" />
            <mxPoint x="156" y="-439" as="targetPoint" />
          </mxGeometry>
        </mxCell>
        <mxCell id="NnwS0OQ6CparOtbuU1h_-53" value="Linear" style="text;html=1;align=center;verticalAlign=middle;resizable=0;points=[];autosize=1;strokeColor=none;fillColor=none;fontSize=16;" vertex="1" parent="1">
          <mxGeometry x="-11" y="-52" width="62" height="31" as="geometry" />
        </mxCell>
        <mxCell id="NnwS0OQ6CparOtbuU1h_-55" value="Linear" style="text;html=1;align=center;verticalAlign=middle;resizable=0;points=[];autosize=1;strokeColor=none;fillColor=none;fontSize=16;" vertex="1" parent="1">
          <mxGeometry x="112" y="-52" width="62" height="31" as="geometry" />
        </mxCell>
        <mxCell id="NnwS0OQ6CparOtbuU1h_-56" value="Linear" style="text;html=1;align=center;verticalAlign=middle;resizable=0;points=[];autosize=1;strokeColor=none;fillColor=none;fontSize=16;" vertex="1" parent="1">
          <mxGeometry x="51" y="-52" width="62" height="31" as="geometry" />
        </mxCell>
        <mxCell id="NnwS0OQ6CparOtbuU1h_-57" value="Linear" style="text;html=1;align=center;verticalAlign=middle;resizable=0;points=[];autosize=1;strokeColor=none;fillColor=none;fontSize=16;" vertex="1" parent="1">
          <mxGeometry x="174" y="-52" width="62" height="31" as="geometry" />
        </mxCell>
        <mxCell id="NnwS0OQ6CparOtbuU1h_-58" value="Linear" style="text;html=1;align=center;verticalAlign=middle;resizable=0;points=[];autosize=1;strokeColor=none;fillColor=none;fontSize=16;" vertex="1" parent="1">
          <mxGeometry x="236" y="-52" width="62" height="31" as="geometry" />
        </mxCell>
        <mxCell id="NnwS0OQ6CparOtbuU1h_-59" value="Linear" style="text;html=1;align=center;verticalAlign=middle;resizable=0;points=[];autosize=1;strokeColor=none;fillColor=none;fontSize=16;" vertex="1" parent="1">
          <mxGeometry x="298" y="-52" width="62" height="31" as="geometry" />
        </mxCell>
        <mxCell id="NnwS0OQ6CparOtbuU1h_-60" value="Linear" style="text;html=1;align=center;verticalAlign=middle;resizable=0;points=[];autosize=1;strokeColor=none;fillColor=none;fontSize=16;" vertex="1" parent="1">
          <mxGeometry x="359" y="-52" width="62" height="31" as="geometry" />
        </mxCell>
      </root>
    </mxGraphModel>
  </diagram>
</mxfile>
